<svg xmlns="http://www.w3.org/2000/svg" version="1.1" xmlns:xlink="http://www.w3.org/1999/xlink" xmlns:svgjs="http://svgjs.dev/svgjs" width="1000" height="318" viewBox="0 0 1000 318"><g transform="matrix(1,0,0,1,-0.6060606060606233,0.20954865724334582)"><svg viewBox="0 0 396 126" data-background-color="#ffffff" preserveAspectRatio="xMidYMid meet" height="318" width="1000" xmlns="http://www.w3.org/2000/svg" xmlns:xlink="http://www.w3.org/1999/xlink"><g id="tight-bounds" transform="matrix(1,0,0,1,0.2400000000000091,-0.08302871324735861)"><svg viewBox="0 0 395.52 126.16605742649472" height="126.16605742649472" width="395.52"><g><svg viewBox="0 0 395.52 126.16605742649472" height="126.16605742649472" width="395.52"><g><svg viewBox="0 0 395.52 126.16605742649472" height="126.16605742649472" width="395.52"><g id="textblocktransform"><svg viewBox="0 0 395.52 126.16605742649472" height="126.16605742649472" width="395.52" id="textblock"><g><rect width="395.52" height="96.01053833528721" fill="none" stroke-width="9.018103199999999" stroke="#ffdc00" data-fill-palette-color="none" data-stroke-palette-color="tertiary"></rect><rect width="395.52" height="30.155519091207502" y="96.01053833528721" fill="#ffdc00" data-fill-palette-color="tertiary"></rect></g><g><svg viewBox="0 0 395.52 96.01053833528721" height="96.01053833528721" width="395.52"><g transform="matrix(1,0,0,1,23.607599999999998,23.607599999999994)"><svg width="348.3048" viewBox="0.3 -35.35 255.87 35.85" height="48.79533833528722" data-palette-color="#ffdc00"><path d="M0.3-0.25L0.3-0.25 6.5-34.6Q6.55-34.8 6.75-34.8L6.75-34.8 14-34.8Q14.2-34.8 14.25-34.6L14.25-34.6 20.2-0.25Q20.25 0 20 0L20 0 14.45 0Q14.25 0 14.2-0.25L14.2-0.25 13.65-3.9 6.85-3.9 6.3-0.25Q6.25 0 6.05 0L6.05 0 0.5 0Q0.3 0 0.3-0.25ZM10.1-23.3L7.85-9.25 12.65-9.25 10.6-23.3 10.3-25.15 10.1-23.3ZM29.2 0L23.55 0Q23.35 0 23.35-0.25L23.35-0.25 23.45-34.6Q23.45-34.8 23.65-34.8L23.65-34.8 29.75-34.8Q29.95-34.8 30.1-34.6L30.1-34.6 34.65-28 39.2-34.6Q39.35-34.8 39.55-34.8L39.55-34.8 45.7-34.8Q45.9-34.8 45.9-34.6L45.9-34.6 46-0.25Q46 0 45.8 0L45.8 0 40.15 0Q39.95 0 39.95-0.25L39.95-0.25 39.9-25.75 34.65-18.15 29.45-25.75 29.4-0.25Q29.4 0 29.2 0L29.2 0ZM63.49 0L57.84 0Q57.59 0 57.59-0.25L57.59-0.25 57.64-34.6Q57.64-34.8 57.84-34.8L57.84-34.8 63.44-34.8Q63.64-34.8 63.64-34.6L63.64-34.6 63.69-0.25Q63.69 0 63.49 0L63.49 0ZM86.14 0L80.49 0Q80.29 0 80.29-0.25L80.29-0.25 80.29-28.75 73.79-28.75Q73.54-28.75 73.54-29L73.54-29 73.59-34.6Q73.59-34.8 73.79-34.8L73.79-34.8 92.79-34.8Q93.04-34.8 93.04-34.6L93.04-34.6 93.04-29Q93.04-28.75 92.84-28.75L92.84-28.75 86.29-28.75 86.34-0.25Q86.34 0 86.14 0L86.14 0ZM101.34 0L95.69 0Q95.49 0 95.49-0.25L95.49-0.25 95.54-34.6Q95.54-34.8 95.79-34.8L95.79-34.8 101.34-34.8Q101.59-34.8 101.59-34.6L101.59-34.6 101.54-21 109.04-21 109.04-34.6Q109.04-34.8 109.24-34.8L109.24-34.8 114.79-34.8Q115.04-34.8 115.04-34.6L115.04-34.6 115.14-0.25Q115.14 0 114.89 0L114.89 0 109.29 0Q109.04 0 109.04-0.25L109.04-0.25 109.04-14.95 101.54-14.95 101.54-0.25Q101.54 0 101.34 0L101.34 0ZM135.58 0L119.43 0Q119.23 0 119.23-0.25L119.23-0.25 119.28-34.6Q119.28-34.8 119.48-34.8L119.48-34.8 135.53-34.8Q135.73-34.8 135.73-34.55L135.73-34.55 135.73-28.95Q135.73-28.75 135.53-28.75L135.53-28.75 125.28-28.75 125.28-20.95 135.53-20.95Q135.73-20.95 135.73-20.75L135.73-20.75 135.78-15.1Q135.78-14.9 135.58-14.9L135.58-14.9 125.28-14.9 125.28-6.15 135.58-6.15Q135.78-6.15 135.78-5.9L135.78-5.9 135.78-0.2Q135.78 0 135.58 0L135.58 0ZM155.83 0.5L155.83 0.5Q153.03 0.5 150.8-0.83 148.58-2.15 147.3-4.48 146.03-6.8 146.03-9.7L146.03-9.7 146.03-12Q146.03-12.2 146.23-12.2L146.23-12.2 151.88-12.2Q152.08-12.2 152.08-11.95L152.08-11.95 152.08-9.7Q152.08-7.85 153.13-6.7 154.18-5.55 155.83-5.55L155.83-5.55Q157.33-5.55 158.43-6.8 159.53-8.05 159.53-9.7L159.53-9.7 159.53-34.55Q159.53-34.75 159.73-34.75L159.73-34.75 165.33-34.75Q165.53-34.75 165.53-34.5L165.53-34.5 165.58-9.7Q165.58-6.95 164.25-4.63 162.93-2.3 160.73-0.9 158.53 0.5 155.83 0.5ZM185.73 0L169.58 0Q169.38 0 169.38-0.25L169.38-0.25 169.43-34.6Q169.43-34.8 169.63-34.8L169.63-34.8 185.68-34.8Q185.88-34.8 185.88-34.55L185.88-34.55 185.88-28.95Q185.88-28.75 185.68-28.75L185.68-28.75 175.43-28.75 175.43-20.95 185.68-20.95Q185.88-20.95 185.88-20.75L185.88-20.75 185.93-15.1Q185.93-14.9 185.73-14.9L185.73-14.9 175.43-14.9 175.43-6.15 185.73-6.15Q185.93-6.15 185.93-5.9L185.93-5.9 185.93-0.2Q185.93 0 185.73 0L185.73 0ZM196.22 0L190.57 0Q190.37 0 190.37-0.25L190.37-0.25 190.47-34.6Q190.47-34.8 190.67-34.8L190.67-34.8 200.77-34.8Q203.47-34.8 205.75-33.48 208.02-32.15 209.37-29.93 210.72-27.7 210.72-24.9L210.72-24.9Q210.72-23.05 210.17-21.58 209.62-20.1 208.87-19.07 208.12-18.05 207.52-17.55L207.52-17.55Q210.22-14.55 210.22-10.5L210.22-10.5 210.27-0.25Q210.27 0 210.02 0L210.02 0 204.37 0Q204.17 0 204.17-0.15L204.17-0.15 204.17-10.5Q204.17-12.3 202.9-13.63 201.62-14.95 199.77-14.95L199.77-14.95 196.47-14.95 196.42-0.25Q196.42 0 196.22 0L196.22 0ZM196.47-28.8L196.47-20.95 200.77-20.95Q202.32-20.95 203.52-22.1 204.72-23.25 204.72-24.9L204.72-24.9Q204.72-26.5 203.55-27.65 202.37-28.8 200.77-28.8L200.77-28.8 196.47-28.8ZM220.32 0L214.67 0Q214.47 0 214.47-0.25L214.47-0.25 214.57-34.55Q214.57-34.8 214.77-34.8L214.77-34.8 220.37-34.8Q220.57-34.8 220.57-34.55L220.57-34.55 220.57-22.7 228.42-34.6Q228.57-34.8 228.77-34.8L228.77-34.8 234.52-34.8Q234.72-34.8 234.62-34.6L234.62-34.6 225.97-20.8 235.67-0.2Q235.77 0 235.42 0L235.42 0 229.32 0Q229.07 0 229.02-0.2L229.02-0.2 222.27-14.9 220.52-12.15 220.52-0.25Q220.52 0 220.32 0L220.32 0ZM249.17-9.2L243.62-9.2Q243.37-9.2 243.37-9.4L243.37-9.4 243.37-12.1Q243.37-14.1 244.29-16.13 245.22-18.15 246.82-19.75L246.82-19.75Q248.32-21.25 249.02-22.08 249.72-22.9 249.92-23.6 250.12-24.3 250.12-25.25L250.12-25.25Q250.12-27 249.07-28.18 248.02-29.35 246.42-29.35L246.42-29.35Q244.82-29.35 243.74-28.18 242.67-27 242.67-25.25L242.67-25.25 242.67-21.6Q242.67-21.4 242.47-21.4L242.47-21.4 236.82-21.4Q236.62-21.4 236.62-21.6L236.62-21.6 236.62-25.25Q236.62-28.05 237.94-30.35 239.27-32.65 241.49-34 243.72-35.35 246.42-35.35L246.42-35.35Q249.12-35.35 251.34-34 253.57-32.65 254.87-30.35 256.17-28.05 256.17-25.25L256.17-25.25Q256.17-23.6 255.82-22.33 255.47-21.05 254.52-19.68 253.57-18.3 251.72-16.25L251.72-16.25Q250.47-15 249.94-14 249.42-13 249.42-11.8L249.42-11.8 249.42-9.4Q249.42-9.2 249.17-9.2L249.17-9.2ZM249.17 0L243.62 0Q243.37 0 243.37-0.25L243.37-0.25 243.37-5.8Q243.37-6 243.62-6L243.62-6 249.17-6Q249.42-6 249.42-5.8L249.42-5.8 249.42-0.25Q249.42 0 249.17 0L249.17 0Z" opacity="1" transform="matrix(1,0,0,1,0,0)" fill="#ffdc00" class="wordmark-text-0" data-fill-palette-color="primary" id="text-0"></path></svg></g></svg></g></svg></g></svg></g></svg></g><defs></defs></svg><rect width="395.52" height="126.16605742649472" fill="none" stroke="none" visibility="hidden"></rect></g></svg></g></svg>